<mxfile host="app.diagrams.net" modified="2024-07-11T16:20:16.312Z" agent="Mozilla/5.0 (Macintosh; Intel Mac OS X 10_15_7) AppleWebKit/537.36 (KHTML, like Gecko) Chrome/126.0.0.0 Safari/537.36" version="24.6.4" etag="Hn7Wfs6uYtoRg8cMCvkb" type="github">
  <diagram name="Page-1" id="QxITMo-z3I-yNRK9PtHj">
    <mxGraphModel>
      <root>
        <mxCell id="0" />
        <mxCell id="1" parent="0" />
      </root>
    </mxGraphModel>
  </diagram>
</mxfile>
